<?xml version="1.0" encoding="utf-8"?>
<svg viewBox="78.9382 59.6484 180.82 123.74" xmlns="http://www.w3.org/2000/svg">
  <rect x="280.48" y="61.59" width="79.11" height="50.47" style="fill:#fff" transform="matrix(1, 0, 0, 1, -191.74177551269528, -1.4415639638900757)"/>
  <path d="M360.09,112.56H280V61.09h80.11Zm-79.11-1h78.11V62.09H281Z" style="fill:#ebebeb" transform="matrix(1, 0, 0, 1, -191.74177551269528, -1.4415639638900757)"/>
  <rect x="280.48" y="61.59" width="79.11" height="9.54" style="fill:#0A75AD" transform="matrix(1, 0, 0, 1, -191.74177551269528, -1.4415639638900757)"/>
  <path d="M360.09,71.64H280V61.09h80.11Zm-79.11-1h78.11V62.09H281Z" style="fill:#ebebeb" transform="matrix(1, 0, 0, 1, -191.74177551269528, -1.4415639638900757)"/>
  <path d="M289.43,66.43A2.4,2.4,0,1,1,287,64,2.4,2.4,0,0,1,289.43,66.43Z" style="fill:#a6a6a6" transform="matrix(1, 0, 0, 1, -191.74177551269528, -1.4415639638900757)"/>
  <path d="M299.24,66.43a2.4,2.4,0,1,1-2.4-2.4A2.4,2.4,0,0,1,299.24,66.43Z" style="fill:#ebebeb" transform="matrix(1, 0, 0, 1, -191.74177551269528, -1.4415639638900757)"/>
  <path d="M309.05,66.43a2.4,2.4,0,1,1-2.4-2.4A2.4,2.4,0,0,1,309.05,66.43Z" style="fill:#fff" transform="matrix(1, 0, 0, 1, -191.74177551269528, -1.4415639638900757)"/>
  <path d="M294.13,90a9.75,9.75,0,0,1,9.75-9.57A10,10,0,0,1,310,82.51a1.58,1.58,0,0,1,.26,2.13,1.55,1.55,0,0,1-2.12.29,6.63,6.63,0,0,0-4.29-1.46,7,7,0,0,0-4.78,1.91A6.54,6.54,0,0,0,297.16,90a6.45,6.45,0,0,0,1.94,4.62,7,7,0,0,0,4.78,1.92,6.7,6.7,0,0,0,4.29-1.47,1.61,1.61,0,0,1,2.12.3A1.57,1.57,0,0,1,310,97.5a9.94,9.94,0,0,1-6.15,2.08A9.73,9.73,0,0,1,294.13,90Z" style="fill:#ebebeb" transform="matrix(1, 0, 0, 1, -191.74177551269528, -1.4415639638900757)"/>
  <path d="M314.86,95a1.39,1.39,0,0,1,1.94-.18,8.69,8.69,0,0,0,5.08,2,5.76,5.76,0,0,0,3.32-1,2.39,2.39,0,0,0,1.14-1.92,1.53,1.53,0,0,0-.23-.85,2.5,2.5,0,0,0-.8-.79A10.45,10.45,0,0,0,321.67,91h-.06a14.35,14.35,0,0,1-3.43-1,5.75,5.75,0,0,1-2.47-2.07,4.07,4.07,0,0,1-.61-2.18,4.88,4.88,0,0,1,2.13-3.88,7.82,7.82,0,0,1,4.6-1.41,10.44,10.44,0,0,1,5.79,2.12,1.37,1.37,0,0,1,.37,1.89,1.33,1.33,0,0,1-1.88.4,7.76,7.76,0,0,0-4.28-1.7,5.09,5.09,0,0,0-3,.9,2.13,2.13,0,0,0-1,1.68,1.22,1.22,0,0,0,.19.74,2.46,2.46,0,0,0,.71.69,9,9,0,0,0,3.33,1.17h.05a15.8,15.8,0,0,1,3.67,1.12,6.13,6.13,0,0,1,2.65,2.21,4.26,4.26,0,0,1,.64,2.25A5.14,5.14,0,0,1,326.8,98a8.38,8.38,0,0,1-4.92,1.51,11.49,11.49,0,0,1-6.81-2.66A1.42,1.42,0,0,1,314.86,95Z" style="fill:#ebebeb" transform="matrix(1, 0, 0, 1, -191.74177551269528, -1.4415639638900757)"/>
  <path d="M332.33,95a1.39,1.39,0,0,1,1.94-.18,8.66,8.66,0,0,0,5.07,2,5.79,5.79,0,0,0,3.33-1,2.42,2.42,0,0,0,1.14-1.92,1.53,1.53,0,0,0-.24-.85,2.5,2.5,0,0,0-.8-.79A10.45,10.45,0,0,0,339.13,91h-.05a14.35,14.35,0,0,1-3.43-1,5.69,5.69,0,0,1-2.47-2.07,4.08,4.08,0,0,1-.62-2.18,4.91,4.91,0,0,1,2.13-3.88,7.82,7.82,0,0,1,4.6-1.41,10.44,10.44,0,0,1,5.79,2.12,1.37,1.37,0,0,1,.38,1.89,1.34,1.34,0,0,1-1.89.4,7.76,7.76,0,0,0-4.28-1.7,5.09,5.09,0,0,0-3,.9,2.13,2.13,0,0,0-1,1.68,1.29,1.29,0,0,0,.19.74,2.39,2.39,0,0,0,.72.69,9,9,0,0,0,3.32,1.17h.05a15.51,15.51,0,0,1,3.67,1.12,6.16,6.16,0,0,1,2.66,2.21,4.26,4.26,0,0,1,.64,2.25A5.15,5.15,0,0,1,344.26,98a8.35,8.35,0,0,1-4.92,1.51,11.43,11.43,0,0,1-6.8-2.66A1.4,1.4,0,0,1,332.33,95Z" style="fill:#ebebeb" transform="matrix(1, 0, 0, 1, -191.74177551269528, -1.4415639638900757)"/>
  <rect x="306.14" y="107.82" width="108.05" height="76.51" style="fill:#fff" transform="matrix(1, 0, 0, 1, -191.74177551269528, -1.4415639638900757)"/>
  <path d="M414.7,184.83H305.64V107.32H414.7Zm-108.06-1H413.7V108.32H306.64Z" style="fill:#ebebeb" transform="matrix(1, 0, 0, 1, -191.74177551269528, -1.4415639638900757)"/>
  <rect x="306.14" y="107.82" width="108.05" height="9.54" style="fill:#0A75AD" transform="matrix(1, 0, 0, 1, -191.74177551269528, -1.4415639638900757)"/>
  <path d="M414.7,117.87H305.64V107.32H414.7Zm-108.06-1H413.7v-8.55H306.64Z" style="fill:#ebebeb" transform="matrix(1, 0, 0, 1, -191.74177551269528, -1.4415639638900757)"/>
  <path d="M315.1,112.66a2.4,2.4,0,1,1-2.4-2.4A2.4,2.4,0,0,1,315.1,112.66Z" style="fill:#a6a6a6" transform="matrix(1, 0, 0, 1, -191.74177551269528, -1.4415639638900757)"/>
  <path d="M324.91,112.66a2.41,2.41,0,1,1-2.4-2.4A2.4,2.4,0,0,1,324.91,112.66Z" style="fill:#ebebeb" transform="matrix(1, 0, 0, 1, -191.74177551269528, -1.4415639638900757)"/>
  <path d="M334.72,112.66a2.41,2.41,0,1,1-2.41-2.4A2.4,2.4,0,0,1,334.72,112.66Z" style="fill:#fff" transform="matrix(1, 0, 0, 1, -191.74177551269528, -1.4415639638900757)"/>
  <rect x="316.38" y="136.35" width="5.1" height="1.86" style="fill:#ebebeb" transform="matrix(1, 0, 0, 1, -191.74177551269528, -1.4415639638900757)"/>
  <rect x="325.2" y="136.35" width="34.65" height="1.86" style="fill:#ebebeb" transform="matrix(1, 0, 0, 1, -191.74177551269528, -1.4415639638900757)"/>
  <rect x="362.98" y="136.35" width="9.69" height="1.86" style="fill:#0A75AD" transform="matrix(1, 0, 0, 1, -191.74177551269528, -1.4415639638900757)"/>
  <rect x="385.15" y="161.29" width="9.69" height="1.86" style="fill:#ebebeb" transform="matrix(1, 0, 0, 1, -191.74177551269528, -1.4415639638900757)"/>
  <rect x="374.78" y="136.35" width="16.75" height="1.86" style="fill:#a6a6a6" transform="matrix(1, 0, 0, 1, -191.74177551269528, -1.4415639638900757)"/>
  <rect x="321.48" y="141.34" width="5.1" height="1.86" style="fill:#ebebeb" transform="matrix(1, 0, 0, 1, -191.74177551269528, -1.4415639638900757)"/>
  <rect x="330.18" y="141.34" width="22.49" height="1.86" style="fill:#a6a6a6" transform="matrix(1, 0, 0, 1, -191.74177551269528, -1.4415639638900757)"/>
  <rect x="360.36" y="161.29" width="22.49" height="1.86" style="fill:#a6a6a6" transform="matrix(1, 0, 0, 1, -191.74177551269528, -1.4415639638900757)"/>
  <rect x="325.2" y="156.3" width="20.77" height="1.86" style="fill:#a6a6a6" transform="matrix(1, 0, 0, 1, -191.74177551269528, -1.4415639638900757)"/>
  <rect x="330.18" y="146.33" width="9.82" height="1.86" style="fill:#0A75AD" transform="matrix(1, 0, 0, 1, -191.74177551269528, -1.4415639638900757)"/>
  <rect x="369.47" y="151.32" width="9.82" height="1.86" style="fill:#a6a6a6" transform="matrix(1, 0, 0, 1, -191.74177551269528, -1.4415639638900757)"/>
  <rect x="342.85" y="146.33" width="33.14" height="1.86" style="fill:#a6a6a6" transform="matrix(1, 0, 0, 1, -191.74177551269528, -1.4415639638900757)"/>
  <rect x="325.2" y="161.29" width="33.14" height="1.86" style="fill:#0A75AD" transform="matrix(1, 0, 0, 1, -191.74177551269528, -1.4415639638900757)"/>
  <rect x="373.7" y="141.34" width="26.59" height="1.86" style="fill:#0A75AD" transform="matrix(1, 0, 0, 1, -191.74177551269528, -1.4415639638900757)"/>
  <rect x="355.08" y="141.34" width="16.52" height="1.86" style="fill:#ebebeb" transform="matrix(1, 0, 0, 1, -191.74177551269528, -1.4415639638900757)"/>
  <rect x="377.92" y="146.33" width="16.52" height="1.86" style="fill:#ebebeb" transform="matrix(1, 0, 0, 1, -191.74177551269528, -1.4415639638900757)"/>
  <rect x="321.48" y="146.33" width="5.1" height="1.86" style="fill:#ebebeb" transform="matrix(1, 0, 0, 1, -191.74177551269528, -1.4415639638900757)"/>
  <rect x="316.38" y="151.32" width="5.1" height="1.86" style="fill:#a6a6a6" transform="matrix(1, 0, 0, 1, -191.74177551269528, -1.4415639638900757)"/>
  <rect x="325.2" y="151.32" width="14.23" height="1.86" style="fill:#ebebeb" transform="matrix(1, 0, 0, 1, -191.74177551269528, -1.4415639638900757)"/>
  <rect x="330.18" y="166.28" width="14.23" height="1.86" style="fill:#ebebeb" transform="matrix(1, 0, 0, 1, -191.74177551269528, -1.4415639638900757)"/>
  <rect x="362.52" y="171.27" width="22.93" height="1.86" style="fill:#0A75AD" transform="matrix(1, 0, 0, 1, -191.74177551269528, -1.4415639638900757)"/>
  <rect x="346.86" y="166.28" width="22.28" height="1.86" style="fill:#0A75AD" transform="matrix(1, 0, 0, 1, -191.74177551269528, -1.4415639638900757)"/>
  <rect x="341.52" y="171.27" width="18.36" height="1.86" style="fill:#ebebeb" transform="matrix(1, 0, 0, 1, -191.74177551269528, -1.4415639638900757)"/>
  <rect x="371.75" y="166.28" width="28.54" height="1.86" style="fill:#a6a6a6" transform="matrix(1, 0, 0, 1, -191.74177551269528, -1.4415639638900757)"/>
  <rect x="330.18" y="171.27" width="8.73" height="1.86" style="fill:#a6a6a6" transform="matrix(1, 0, 0, 1, -191.74177551269528, -1.4415639638900757)"/>
  <rect x="348.04" y="156.3" width="24.63" height="1.86" style="fill:#ebebeb" transform="matrix(1, 0, 0, 1, -191.74177551269528, -1.4415639638900757)"/>
  <rect x="374.78" y="156.3" width="20.74" height="1.86" style="fill:#0A75AD" transform="matrix(1, 0, 0, 1, -191.74177551269528, -1.4415639638900757)"/>
  <rect x="342.5" y="151.32" width="24.59" height="1.86" style="fill:#0A75AD" transform="matrix(1, 0, 0, 1, -191.74177551269528, -1.4415639638900757)"/>
  <rect x="316.38" y="156.3" width="5.1" height="1.86" style="fill:#ebebeb" transform="matrix(1, 0, 0, 1, -191.74177551269528, -1.4415639638900757)"/>
  <rect x="316.38" y="161.29" width="5.1" height="1.86" style="fill:#ebebeb" transform="matrix(1, 0, 0, 1, -191.74177551269528, -1.4415639638900757)"/>
  <rect x="321.48" y="166.28" width="5.1" height="1.86" style="fill:#a6a6a6" transform="matrix(1, 0, 0, 1, -191.74177551269528, -1.4415639638900757)"/>
  <rect x="321.48" y="171.27" width="5.1" height="1.86" style="fill:#ebebeb" transform="matrix(1, 0, 0, 1, -191.74177551269528, -1.4415639638900757)"/>
  <path d="M319.53,131.44a.43.43,0,0,1,0,.63.42.42,0,0,1-.31.13.44.44,0,0,1-.32-.13l-2-2s0,0,0-.05h0s0,0,0-.06a0,0,0,0,1,0,0,.07.07,0,0,0,0-.05s0,0,0,0v-.05s0,0,0,0,0,0,0,0v0a0,0,0,0,1,0,0,.13.13,0,0,0,0-.06h0s0-.05,0-.07a0,0,0,0,1,0,0s0,0,0,0l2-2a.47.47,0,0,1,.63,0,.43.43,0,0,1,0,.63l-1.66,1.68Z" style="fill:#0A75AD" transform="matrix(1, 0, 0, 1, -191.74177551269528, -1.4415639638900757)"/>
  <path d="M321.32,131.67l1.71-4.09a.4.4,0,0,1,.51-.2.39.39,0,0,1,.2.5L322,132a.39.39,0,0,1-.35.23.32.32,0,0,1-.14,0A.37.37,0,0,1,321.32,131.67Z" style="fill:#0A75AD" transform="matrix(1, 0, 0, 1, -191.74177551269528, -1.4415639638900757)"/>
  <path d="M327.13,130h0l-.05.05-2,2a.42.42,0,0,1-.31.13.44.44,0,0,1-.32-.13.45.45,0,0,1,0-.63l1.66-1.67-1.66-1.68a.45.45,0,0,1,0-.63.47.47,0,0,1,.63,0l2,2,.05,0a0,0,0,0,1,0,0l0,.07h0l0,.06s0,0,0,0v.18h0a.64.64,0,0,1,0,.07s0,0,0,0A.16.16,0,0,0,327.13,130Z" style="fill:#0A75AD" transform="matrix(1, 0, 0, 1, -191.74177551269528, -1.4415639638900757)"/>
  <rect x="397.61" y="93.79" width="53.89" height="19.95" style="fill:#455a64" transform="matrix(1, 0, 0, 1, -191.74177551269528, -1.4415639638900757)"/>
  <path d="M405.39,107.91V99.06a.82.82,0,0,1,.83-.83.83.83,0,0,1,.84.83v3.6h3.88v-3.6a.82.82,0,0,1,.83-.83.83.83,0,0,1,.84.83v8.85a.83.83,0,0,1-.84.82.81.81,0,0,1-.83-.82v-3.6h-3.88v3.6a.83.83,0,0,1-.84.82A.81.81,0,0,1,405.39,107.91Z" style="fill:#fff" transform="matrix(1, 0, 0, 1, -191.74177551269528, -1.4415639638900757)"/>
  <path d="M422.45,99.9h-2.39v8a.81.81,0,0,1-.82.82.83.83,0,0,1-.83-.82v-8H416a.83.83,0,0,1-.82-.84.81.81,0,0,1,.82-.83h6.41a.82.82,0,0,1,.82.83A.84.84,0,0,1,422.45,99.9Z" style="fill:#fff" transform="matrix(1, 0, 0, 1, -191.74177551269528, -1.4415639638900757)"/>
  <path d="M434.78,99.06v8.85a.84.84,0,0,1-.84.82.82.82,0,0,1-.83-.82v-6.32l-2.16,3a.8.8,0,0,1-.67.35h0a.83.83,0,0,1-.69-.35l-2.15-3v6.32a.83.83,0,0,1-1.66,0V99.06a.83.83,0,0,1,.82-.83h.05a.8.8,0,0,1,.66.35l3,4.14,3-4.14a.8.8,0,0,1,.67-.35h0A.86.86,0,0,1,434.78,99.06Z" style="fill:#fff" transform="matrix(1, 0, 0, 1, -191.74177551269528, -1.4415639638900757)"/>
  <path d="M438.41,107.91V99.06a.83.83,0,0,1,.82-.83.84.84,0,0,1,.84.83v8h4.07a.83.83,0,0,1,0,1.66h-4.91A.82.82,0,0,1,438.41,107.91Z" style="fill:#fff" transform="matrix(1, 0, 0, 1, -191.74177551269528, -1.4415639638900757)"/>
  <rect x="270.68" y="158.43" width="44.41" height="19.95" style="fill:#455a64" transform="matrix(1, 0, 0, 1, -191.74177551269528, -1.4415639638900757)"/>
  <path d="M283.89,169.3h-1.84v3.25a.84.84,0,0,1-1.67,0V163.7a.83.83,0,0,1,.83-.82h2.68a3.21,3.21,0,1,1,0,6.42Zm-1.84-1.67h1.84a1.55,1.55,0,1,0,0-3.09h-1.84Z" style="fill:#fff" transform="matrix(1, 0, 0, 1, -191.74177551269528, -1.4415639638900757)"/>
  <path d="M289.13,172.55V163.7a.83.83,0,0,1,1.66,0v3.6h3.89v-3.6a.81.81,0,0,1,.83-.82.83.83,0,0,1,.84.82v8.85a.83.83,0,0,1-.84.83.82.82,0,0,1-.83-.83V169h-3.89v3.6a.83.83,0,1,1-1.66,0Z" style="fill:#fff" transform="matrix(1, 0, 0, 1, -191.74177551269528, -1.4415639638900757)"/>
  <path d="M303.28,169.3h-1.85v3.25a.84.84,0,0,1-.84.83.83.83,0,0,1-.82-.83V163.7a.82.82,0,0,1,.82-.82h2.69a3.21,3.21,0,1,1,0,6.42Zm-1.85-1.67h1.85a1.55,1.55,0,1,0,0-3.09h-1.85Z" style="fill:#fff" transform="matrix(1, 0, 0, 1, -191.74177551269528, -1.4415639638900757)"/>
</svg>